<?xml version="1.0" standalone="no"?>
<!DOCTYPE svg PUBLIC "-//W3C//DTD SVG 20010904//EN"
 "http://www.w3.org/TR/2001/REC-SVG-20010904/DTD/svg10.dtd">
<svg version="1.0" xmlns="http://www.w3.org/2000/svg"
 width="206.000000pt" height="104.000000pt" viewBox="0 0 206.000000 104.000000"
 preserveAspectRatio="xMidYMid meet">

<g transform="translate(0.000000,104.000000) scale(0.100000,-0.100000)"
fill="#000000" stroke="none">
<path d="M130 515 l0 -385 50 0 50 0 2 188 3 187 168 3 167 3 0 -190 0 -191
53 0 52 0 2 385 2 385 -55 0 -54 0 0 -155 0 -155 -170 0 -170 0 0 155 0 155
-50 0 -50 0 0 -385z"/>
<path d="M976 650 c-166 -202 -206 -256 -206 -280 l0 -30 175 0 175 0 0 -105
0 -105 50 0 50 0 0 105 0 105 40 0 41 0 -3 40 c-2 39 -3 40 -40 40 l-38 0 0
240 c0 230 -1 240 -19 240 -13 0 -87 -82 -225 -250z m144 -95 l0 -135 -115 0
-115 0 112 135 c61 74 113 135 115 135 2 0 3 -61 3 -135z"/>
<path d="M1402 593 c3 -297 4 -310 25 -350 42 -77 130 -123 238 -123 115 0
209 52 249 140 19 42 21 67 24 343 l4 297 -51 0 -50 0 -3 -294 c-3 -279 -4
-296 -24 -322 -35 -48 -70 -67 -128 -72 -77 -6 -137 23 -165 82 -20 40 -21 60
-21 324 l0 282 -51 0 -50 0 3 -307z"/>
</g>
</svg>
